<?xml version="1.0" encoding="UTF-8"?>
<svg id="OBJECTS" xmlns="http://www.w3.org/2000/svg" viewBox="0 0 500 500">
  <defs>
    <style>
      .cls-1 {
        fill: #51aef4;
      }

      .cls-1, .cls-2 {
        stroke-width: 0px;
      }

      .cls-2 {
        fill: #474747;
      }
    </style>
  </defs>
  <g>
    <path class="cls-1" d="M94.44,429.91l-.18-38.01-16.6,30.94h-8.12l-16.5-29.92v36.98h-16.88v-71.71h15.03l22.68,41.39,22.13-41.39h15.03l.18,71.71h-16.78Z"/>
    <path class="cls-1" d="M120.32,358.19h18.26v71.71h-18.26v-71.71Z"/>
    <path class="cls-1" d="M203.25,413.82v16.08h-57.81v-12.7l32.55-42.93h-31.72v-16.08h55.6v12.7l-32.55,42.93h33.93Z"/>
    <path class="cls-1" d="M220.54,426.58c-5.38-3.18-9.6-7.6-12.68-13.27-3.08-5.67-4.61-12.09-4.61-19.26s1.54-13.59,4.61-19.26c3.07-5.67,7.3-10.09,12.68-13.27,5.38-3.18,11.45-4.76,18.21-4.76,5.9,0,11.22,1.16,15.95,3.48,4.73,2.32,8.67,5.67,11.8,10.04l-11.62,11.68c-4.18-5.6-9.25-8.4-15.21-8.4-3.5,0-6.63.85-9.36,2.56-2.74,1.71-4.86,4.11-6.36,7.22-1.51,3.11-2.26,6.68-2.26,10.71s.75,7.6,2.26,10.71c1.5,3.11,3.63,5.51,6.36,7.22,2.73,1.71,5.86,2.56,9.36,2.56,5.96,0,11.03-2.8,15.21-8.4l11.62,11.68c-3.14,4.37-7.07,7.72-11.8,10.04-4.73,2.32-10.05,3.48-15.95,3.48-6.76,0-12.83-1.59-18.21-4.76Z"/>
    <path class="cls-1" d="M314.22,361.52c5.38,3.18,9.6,7.6,12.68,13.27,3.08,5.67,4.61,12.09,4.61,19.26s-1.54,13.59-4.61,19.26c-3.07,5.67-7.3,10.09-12.68,13.27s-11.45,4.76-18.21,4.76c-5.9,0-11.22-1.16-15.95-3.48-4.73-2.32-8.67-5.67-11.8-10.04l11.62-11.68c4.18,5.6,9.25,8.4,15.21,8.4,3.5,0,6.63-.85,9.36-2.56,2.74-1.71,4.86-4.11,6.36-7.22,1.51-3.11,2.26-6.68,2.26-10.71s-.75-7.6-2.26-10.71c-1.5-3.11-3.63-5.51-6.36-7.22-2.73-1.71-5.86-2.56-9.36-2.56-5.96,0-11.03,2.8-15.21,8.4l-11.62-11.68c3.14-4.37,7.07-7.72,11.8-10.04,4.73-2.32,10.05-3.48,15.95-3.48,6.76,0,12.83,1.59,18.21,4.76Z"/>
    <path class="cls-1" d="M337.81,358.19h30.52c7.07,0,13.34,1.47,18.81,4.4,5.47,2.94,9.71,7.11,12.72,12.5,3.01,5.4,4.52,11.72,4.52,18.95s-1.51,13.56-4.52,18.95c-3.01,5.4-7.26,9.56-12.72,12.5-5.47,2.94-11.74,4.41-18.81,4.41h-30.52v-71.71ZM367.59,413.72c5.53,0,9.97-1.74,13.32-5.23,3.35-3.48,5.02-8.3,5.02-14.44s-1.67-10.96-5.02-14.45c-3.35-3.48-7.79-5.22-13.32-5.22h-11.53v39.34h11.53Z"/>
    <path class="cls-1" d="M463.83,414.23v15.68h-51.82v-71.71h50.62v15.67h-32.55v12.09h28.68v15.16h-28.68v13.11h33.75Z"/>
  </g>
  <g>
    <path class="cls-2" d="M133.26,285.32h242.42c20.24,0,36.7-16.46,36.7-36.68V105.34c0-20.24-16.46-36.68-36.7-36.68h-15.09l-10.2,20.77h25.29c8.78,0,15.93,7.13,15.93,15.91v143.3c0,8.78-7.15,15.91-15.93,15.91h-242.42c-8.78,0-15.93-7.13-15.93-15.91V105.34c0-8.78,7.15-15.91,15.93-15.91h244.72l-10.2-20.77h-234.53c-20.24,0-36.7,16.45-36.7,36.68v143.3c0,20.22,16.46,36.68,36.7,36.68Z"/>
    <path class="cls-2" d="M447.1,307.35c0,13.28-10.74,24.02-24.02,24.02H85.85c-13.26,0-24.02-10.74-24.02-24.02h144.27c2.82,7.04,9.74,12.01,17.8,12.01h61.12c5.3,0,10.09-2.15,13.55-5.63,1.82-1.8,3.27-3.97,4.24-6.38h144.31Z"/>
  </g>
  <g>
    <path class="cls-2" d="M164.1,226.46c-2.88,0-5.76-1.1-7.96-3.29-4.4-4.4-4.4-11.52,0-15.92l37.7-37.71-35.18-35.18c-4.39-4.39-4.39-11.52,0-15.92,4.39-4.39,11.52-4.39,15.92,0l43.14,43.14c4.39,4.39,4.39,11.52,0,15.91l-45.66,45.66c-2.2,2.2-5.08,3.3-7.96,3.3Z"/>
    <path class="cls-2" d="M281.77,221.8h-57.49c-6.21,0-11.25-5.04-11.25-11.25s5.04-11.25,11.25-11.25h57.49c6.21,0,11.25,5.04,11.25,11.25s-5.04,11.25-11.25,11.25Z"/>
  </g>
</svg>